<svg id="Layer_1" data-name="Layer 1" xmlns="http://www.w3.org/2000/svg" width="559" height="304.44" viewBox="0 0 559 304.44">
  <title>logo-dvs</title>
  <g>
    <path d="M482.07,452.32q-27.78,0-71-9.53V412.32q46.59,17,76.61,17,23.11,0,37.19-9.52t14.07-25.05a29.08,29.08,0,0,0-9.22-21.69q-9.23-8.94-34-19.93l-19-8.64Q441.44,328.66,427,314.66t-14.45-32.6q0-25.05,23.11-41.24t58.91-16.19q31.87,0,67.29,8.35v28.13q-43.62-13.49-65.05-13.48-20.32,0-33.56,8.5T450,277.52q0,10.85,9.69,19.19t35.42,19.93l19.76,8.79q35.79,16,50,30.19A46.62,46.62,0,0,1,579,389.75q0,28.29-26.56,45.42T482.07,452.32Z" transform="translate(-20 -147.87)" fill="#1c7d54"/>
    <path d="M30.13,446.9V230.05h75.24q33.64,0,54.36,7.18a83.88,83.88,0,0,1,35.87,24.32q24,27.26,24,71.79,0,54.07-29.82,83.81T105.83,446.9Zm32.11-23h41.14q44,0,62.39-22.71Q185.51,377,185.5,336.27q0-38.24-19.42-60.07A59.94,59.94,0,0,0,137.94,258q-16.36-4.9-49.24-4.91H62.24Z" transform="translate(-20 -147.87)" fill="#1c7d54"/>
    <path d="M296.88,446.9C269.68,399,219.6,253.05,164.76,221.55c15.8,0,63.85-8.85,88.09,51.61C291.56,369.71,301.3,401,301.3,401s16.44-46.06,44.25-120.66,92.3-55.7,92.3-55.7c-49.94,24.73-104.31,173.91-132,222.27Z" transform="translate(-20 -147.87)" fill="#1c7d54"/>
    <path d="M20,183H203.42a48.1,48.1,0,0,1,45.06,31.31l52.82,141.9,51.79-141.9a48.11,48.11,0,0,1,44.75-31.6L579,181.09h0a29.71,29.71,0,0,1-29.71,29.71H402.1A54.72,54.72,0,0,0,351,245.87L301.3,375.16,251.58,245.87a54.72,54.72,0,0,0-51.07-35.07H47.81A27.81,27.81,0,0,1,20,183Z" transform="translate(-20 -147.87)" fill="#7dab26"/>
    <path d="M338,218.05c0,17.64-16.13,31.94-36,31.94s-36-14.3-36-31.94,36-70.18,36-70.18S338,200.42,338,218.05Zm-36-37s-20.23,30.57-20.23,40.84,9.05,18.58,20.23,18.58,20.22-8.32,20.22-18.58S301.94,181.09,301.94,181.09Z" transform="translate(-20 -147.87)" fill="#f1a400"/>
  </g>
</svg>
